<svg width="32" height="22" viewBox="0 0 32 22" fill="none" xmlns="http://www.w3.org/2000/svg">
<path d="M27.701 0.25293H3.44332V11.0189H27.701V0.25293Z" fill="#353B40"/>
<path d="M27.9542 11.268H3.1945V0H27.9542V11.268ZM3.6965 10.7701H27.4522V0.501998H3.6965V10.7701Z" fill="#A0A2A3"/>
<path d="M12.9149 13.2553H4.28141C3.46826 13.2553 2.80861 12.5956 2.80861 11.7825V7.15249C2.80861 6.33934 3.46826 5.67969 4.28141 5.67969H12.9149C13.7281 5.67969 14.3878 6.33934 14.3878 7.15249V11.7783C14.3878 12.5915 13.7281 13.2553 12.9149 13.2553Z" fill="#E58824"/>
<path d="M12.915 13.5044H4.28148C3.33141 13.5044 2.5556 12.7327 2.5556 11.7785V7.15264C2.5556 6.20257 3.32727 5.42676 4.28148 5.42676H12.915C13.8651 5.42676 14.6409 6.19843 14.6409 7.15264V11.7785C14.6409 12.7327 13.8651 13.5044 12.915 13.5044ZM4.28148 5.93291C3.60523 5.93291 3.05759 6.48054 3.05759 7.15678V11.7826C3.05759 12.4589 3.60523 13.0065 4.28148 13.0065H12.915C13.5913 13.0065 14.1389 12.4589 14.1389 11.7826V7.15264C14.1389 6.47639 13.5913 5.92876 12.915 5.92876H4.28148V5.93291Z" fill="#A0A2A3"/>
<path d="M26.6843 13.2553H18.0507C17.2376 13.2553 16.5779 12.5956 16.5779 11.7825V7.15249C16.5779 6.33934 17.2376 5.67969 18.0507 5.67969H26.6843C27.4974 5.67969 28.1571 6.33934 28.1571 7.15249V11.7783C28.1571 12.5915 27.4974 13.2553 26.6843 13.2553Z" fill="#E58824"/>
<path d="M26.6846 13.5044H18.051C17.101 13.5044 16.3251 12.7327 16.3251 11.7785V7.15264C16.3251 6.20257 17.0968 5.42676 18.051 5.42676H26.6846C27.6346 5.42676 28.4104 6.19843 28.4104 7.15264V11.7785C28.4104 12.7327 27.6346 13.5044 26.6846 13.5044ZM18.051 5.93291C17.3748 5.93291 16.8271 6.48054 16.8271 7.15678V11.7826C16.8271 12.4589 17.3748 13.0065 18.051 13.0065H26.6846C27.3608 13.0065 27.9084 12.4589 27.9084 11.7826V7.15264C27.9084 6.47639 27.3608 5.92876 26.6846 5.92876H18.051V5.93291Z" fill="#A0A2A3"/>
<path d="M29.423 11.0186H1.7301C0.916947 11.0186 0.257296 11.6782 0.257296 12.4914V15.0719C0.257296 15.885 0.916947 16.5447 1.7301 16.5447H29.423C30.2361 16.5447 30.8958 15.885 30.8958 15.0719V12.4914C30.8958 11.6782 30.2361 11.0186 29.423 11.0186Z" fill="#353B40"/>
<path d="M29.4229 16.7979H1.73005C0.779985 16.7979 0.00416851 16.0262 0.00416851 15.072V12.4915C0.00416851 11.5414 0.775836 10.7656 1.73005 10.7656H29.4229C30.373 10.7656 31.1488 11.5373 31.1488 12.4915V15.072C31.1446 16.0221 30.373 16.7979 29.4229 16.7979ZM1.7259 11.2676C1.04966 11.2676 0.502023 11.8153 0.502023 12.4915V15.072C0.502023 15.7483 1.04966 16.2959 1.7259 16.2959H29.4188C30.095 16.2959 30.6426 15.7483 30.6426 15.072V12.4915C30.6426 11.8153 30.095 11.2676 29.4188 11.2676H1.7259Z" fill="#A0A2A3"/>
<path d="M30.8955 14.7861H0.252831V21.0922H30.8955V14.7861Z" fill="#353B40"/>
<path d="M31.1446 21.3452H0V14.5371H31.1446V21.3452ZM0.502001 20.8432H30.6426V15.035H0.502001V20.8432Z" fill="#A0A2A3"/>
</svg>
