<svg width="36" height="27" viewBox="0 0 36 27" fill="none" xmlns="http://www.w3.org/2000/svg">
<path d="M10.2851 14.1514H0.253418V16.0971H10.2851V14.1514Z" fill="#353B40"/>
<path d="M10.5337 16.3462H0V13.8984H10.5337V16.3462ZM0.501994 15.8442H10.0317V14.4004H0.501994V15.8442Z" fill="#A0A2A3"/>
<path d="M9.52968 15.8438H9.02768V26.058H9.52968V15.8438Z" fill="#A0A2A3"/>
<path d="M0.501994 1.36035H0V26.0578H0.501994V1.36035Z" fill="#A0A2A3"/>
<path d="M1.12052 1.60938H0.253433V9.16424H1.12052V1.60938Z" fill="#353B40"/>
<path d="M1.3691 9.41331H1.52588e-05V1.35645H1.3691V9.41331ZM0.50201 8.9113H0.867101V1.85844H0.50201V8.9113Z" fill="#A0A2A3"/>
<path d="M35.3352 14.1514H25.3036V16.0971H35.3352V14.1514Z" fill="#353B40"/>
<path d="M35.5837 16.3462H25.05V13.8984H35.5837V16.3462ZM25.552 15.8442H35.0817V14.4004H25.552V15.8442Z" fill="#A0A2A3"/>
<path d="M26.5561 15.8438H26.0541V26.058H26.5561V15.8438Z" fill="#A0A2A3"/>
<path d="M35.5879 1.36035H35.0859V26.0578H35.5879V1.36035Z" fill="#A0A2A3"/>
<path d="M35.335 1.60938H34.4679V9.16424H35.335V1.60938Z" fill="#353B40"/>
<path d="M35.5841 9.41331H34.215V1.35645H35.5841V9.41331ZM34.7211 8.9113H35.0862V1.85844H34.7211V8.9113Z" fill="#A0A2A3"/>
<path d="M4.82481 9.03125H3.58434V25.8088H4.82481V9.03125Z" fill="#353B40"/>
<path d="M5.07398 26.0578H3.33151V8.77832H5.07398V26.0578ZM3.83351 25.5558H4.57199V9.28031H3.83351V25.5558Z" fill="#A0A2A3"/>
<path d="M32.0282 9.03125H30.7877V25.8088H32.0282V9.03125Z" fill="#353B40"/>
<path d="M32.2813 26.0578H30.5388V8.77832H32.2813V26.0578ZM31.0408 25.5558H31.7793V9.28031H31.0408V25.5558Z" fill="#A0A2A3"/>
<path d="M32.0323 6.16504H3.58434V9.16458H32.0323V6.16504Z" fill="#353B40"/>
<path d="M32.2814 9.41365H3.33151V5.91211H32.2814V9.41365ZM3.83351 8.91165H31.7794V6.4141H3.83351V8.91165Z" fill="#A0A2A3"/>
<path d="M6.45134 6.21094L17.9434 13.8612L29.0703 6.21094H6.45134Z" fill="#E58824"/>
<path d="M17.9474 14.164L5.62561 5.96191H29.8792L17.9474 14.164ZM7.28096 6.46391L17.9391 13.5583L28.2612 6.46391H7.28096Z" fill="#A0A2A3"/>
<path d="M21.1258 2.59699C21.1258 3.18197 21.5987 3.65492 22.1837 3.65492C22.7687 3.65492 23.2416 3.18197 23.2416 2.59699C23.2416 2.01202 22.7687 1.53906 22.1837 1.53906C21.5987 1.54321 21.1258 2.01617 21.1258 2.59699Z" fill="#353B40"/>
<path d="M22.1791 3.90375C21.4572 3.90375 20.8722 3.31877 20.8722 2.59689C20.8722 1.87501 21.4572 1.29004 22.1791 1.29004C22.9009 1.29004 23.4859 1.87501 23.4859 2.59689C23.4859 3.31877 22.9009 3.90375 22.1791 3.90375ZM22.1791 1.79203C21.7351 1.79203 21.3742 2.15298 21.3742 2.59689C21.3742 3.04081 21.7351 3.40175 22.1791 3.40175C22.623 3.40175 22.9839 3.04081 22.9839 2.59689C22.9839 2.15298 22.623 1.79203 22.1791 1.79203Z" fill="#A0A2A3"/>
<path d="M23.2371 2.36489C23.8214 2.36489 24.2951 1.89123 24.2951 1.30695C24.2951 0.722676 23.8214 0.249023 23.2371 0.249023C22.6529 0.249023 22.1792 0.722676 22.1792 1.30695C22.1792 1.89123 22.6529 2.36489 23.2371 2.36489Z" fill="#353B40"/>
<path d="M23.2373 2.61371C22.5154 2.61371 21.9305 2.02873 21.9305 1.30685C21.9305 0.58497 22.5154 0 23.2373 0C23.9592 0 24.5442 0.58497 24.5442 1.30685C24.5442 2.02873 23.955 2.61371 23.2373 2.61371ZM23.2373 0.501994C22.7934 0.501994 22.4325 0.862936 22.4325 1.30685C22.4325 1.75077 22.7934 2.11171 23.2373 2.11171C23.6812 2.11171 24.0422 1.75077 24.0422 1.30685C24.0422 0.862936 23.6812 0.501994 23.2373 0.501994Z" fill="#A0A2A3"/>
<path d="M23.8308 4.34413C24.5846 4.34413 25.1957 3.73303 25.1957 2.97919C25.1957 2.22536 24.5846 1.61426 23.8308 1.61426C23.0769 1.61426 22.4658 2.22536 22.4658 2.97919C22.4658 3.73303 23.0769 4.34413 23.8308 4.34413Z" fill="#353B40"/>
<path d="M23.8306 4.59296C22.9386 4.59296 22.2167 3.86693 22.2167 2.9791C22.2167 2.09126 22.9427 1.36523 23.8306 1.36523C24.7225 1.36523 25.4444 2.09126 25.4444 2.9791C25.4444 3.86693 24.7225 4.59296 23.8306 4.59296ZM23.8306 1.86724C23.2166 1.86724 22.7187 2.36508 22.7187 2.9791C22.7187 3.59311 23.2166 4.09096 23.8306 4.09096C24.4446 4.09096 24.9424 3.59311 24.9424 2.9791C24.9424 2.36508 24.4446 1.86724 23.8306 1.86724Z" fill="#A0A2A3"/>
<path d="M23.4278 3H26.0747C26.0747 3 25.7221 5.75891 23.1 5.75891C20.4739 5.75891 20.1627 3 20.1627 3H23.4278Z" fill="#353B40"/>
<path d="M23.1001 6.00774C21.6273 6.00774 20.8349 5.19044 20.4324 4.5059C20.0051 3.77987 19.918 3.05799 19.9139 3.02895L19.8807 2.75098H26.361L26.3237 3.03309C26.3195 3.06214 26.2241 3.78402 25.7843 4.51005C25.3736 5.19044 24.5729 6.00774 23.1001 6.00774ZM20.4615 3.24883C20.5196 3.49776 20.6399 3.88359 20.8681 4.26113C21.3576 5.08673 22.1085 5.5016 23.0959 5.5016C24.0916 5.5016 24.8509 5.07842 25.3529 4.24453C25.581 3.86699 25.7013 3.4936 25.7636 3.24468H20.4615V3.24883Z" fill="#A0A2A3"/>
</svg>
