<svg width="36" height="30" viewBox="0 0 36 30" fill="none" xmlns="http://www.w3.org/2000/svg">
<path d="M3.73373 16.5618H3.23174V2.12C3.23174 0.950056 4.09053 0 5.14431 0H6.642C7.69578 0 8.55457 0.950056 8.55457 2.12V3.62185H8.05258V2.12C8.05258 1.22802 7.41782 0.497842 6.642 0.497842H5.14431C4.36434 0.497842 3.73373 1.22387 3.73373 2.12V16.5618Z" fill="#A0A2A3"/>
<path d="M27.4192 26.5476H7.62966C5.16946 26.5476 3.0453 24.8259 2.53501 22.4196L1.58495 17.9307H33.4639L32.5138 22.4196C32.0077 24.8259 29.8794 26.5476 27.4192 26.5476Z" fill="#353B40"/>
<path d="M27.419 26.8008H7.62953C6.38076 26.8008 5.16103 26.3694 4.19437 25.5811C3.22356 24.797 2.54732 23.6893 2.2901 22.4695L1.2778 17.6777H33.7749L32.7626 22.4695C32.5054 23.6893 31.8291 24.7928 30.8583 25.5811C29.8875 26.3652 28.6678 26.8008 27.419 26.8008ZM1.89596 18.1797L2.7838 22.3658C3.02027 23.4735 3.63014 24.4775 4.51382 25.1911C5.39336 25.9047 6.50107 26.2988 7.63368 26.2988H27.4232C28.5558 26.2988 29.6635 25.9047 30.543 25.1911C31.4226 24.4775 32.0366 23.4735 32.2731 22.3658L33.1609 18.1797H1.89596Z" fill="#A0A2A3"/>
<path d="M34.7918 16.8809H0.253555V18.9179H34.7918V16.8809Z" fill="#E58824"/>
<path d="M35.0444 19.167H0V16.6279H35.0403V19.167H35.0444ZM0.501998 18.665H34.5383V17.1299H0.501998V18.665Z" fill="#A0A2A3"/>
<path d="M7.62919 29.1533H6.69157L7.14794 26.5479H8.99828L7.62919 29.1533Z" fill="#353B40"/>
<path d="M7.78299 29.4023H6.39316L6.93664 26.2949H9.41344L7.78299 29.4023ZM6.99058 28.9003H7.48013L8.5837 26.7969H7.35982L6.99058 28.9003Z" fill="#A0A2A3"/>
<path d="M27.4195 29.1533H28.3571L27.9007 26.5479H26.0504L27.4195 29.1533Z" fill="#353B40"/>
<path d="M28.6555 29.4023H27.2656L25.6352 26.2949H28.112L28.6555 29.4023ZM27.5726 28.9003H28.0622L27.693 26.7969H26.4691L27.5726 28.9003Z" fill="#A0A2A3"/>
<path d="M9.97364 6.40989H6.54263C6.29785 6.40989 6.08626 6.27298 5.98669 6.04895C5.88712 5.82492 5.92861 5.57599 6.09456 5.39759L7.84533 3.47258C7.9615 3.34397 8.12745 3.27344 8.29754 3.27344C8.47179 3.27344 8.63359 3.35226 8.74561 3.48087L10.4258 5.4059C10.5835 5.58844 10.6208 5.83737 10.5213 6.0531C10.4217 6.26884 10.2143 6.40989 9.97364 6.40989ZM8.2934 3.77544C8.2768 3.77544 8.24361 3.77959 8.21457 3.80863L6.4638 5.73364C6.42231 5.77928 6.43476 5.82077 6.4472 5.84566C6.4555 5.87056 6.48454 5.90789 6.54263 5.90789H9.97364C10.0317 5.90789 10.0566 5.87056 10.0691 5.84566C10.0774 5.82492 10.0898 5.77928 10.0525 5.73364L8.37222 3.80863C8.34318 3.78374 8.30999 3.77544 8.2934 3.77544Z" fill="#A0A2A3"/>
<path d="M10.6829 5.79199H5.9326V6.62174H10.6829V5.79199Z" fill="#353B40"/>
<path d="M10.9318 6.87081H5.6795V5.53906H10.9277V6.87081H10.9318ZM6.1815 6.37295H10.4298V6.0452H6.1815V6.37295Z" fill="#A0A2A3"/>
</svg>
