<svg width="29" height="33" viewBox="0 0 29 33" fill="none" xmlns="http://www.w3.org/2000/svg">
<path d="M27.7925 13.5498H0.248962V32.6755H27.7925V13.5498Z" fill="#353B40"/>
<path d="M28.0455 32.9246H0V13.2969H28.0455V32.9246ZM0.502007 32.4226H27.5435V13.7989H0.502007V32.4226Z" fill="#A0A2A3"/>
<path d="M27.7925 13.5498H0.248962V17.8355H27.7925V13.5498Z" fill="#353B40"/>
<path d="M28.0455 18.0845H0V13.2969H28.0455V18.0845ZM0.502007 17.5825H27.5435V13.7989H0.502007V17.5825Z" fill="#A0A2A3"/>
<path d="M25.2907 19.8057H2.28174V30.2481H25.2907V19.8057Z" fill="#353B40"/>
<path d="M25.5399 30.4971H2.02896V19.5527H25.5399V30.4971ZM2.53096 29.9951H25.0379V20.0547H2.53096V29.9951Z" fill="#A0A2A3"/>
<path d="M20.9144 16.5906C21.4116 16.5906 21.8147 16.1875 21.8147 15.6903C21.8147 15.1931 21.4116 14.79 20.9144 14.79C20.4172 14.79 20.0141 15.1931 20.0141 15.6903C20.0141 16.1875 20.4172 16.5906 20.9144 16.5906Z" fill="#353B40"/>
<path d="M23.8642 15.6912C23.8642 15.994 23.6194 16.2388 23.3166 16.2388C23.0137 16.2388 22.7689 15.994 22.7689 15.6912C22.7689 15.3883 23.0137 15.1436 23.3166 15.1436C23.6194 15.1436 23.8642 15.3883 23.8642 15.6912Z" fill="#E58824"/>
<path d="M23.3161 16.4916C22.8764 16.4916 22.5196 16.1348 22.5196 15.695C22.5196 15.2552 22.8764 14.8984 23.3161 14.8984C23.7559 14.8984 24.1127 15.2552 24.1127 15.695C24.1127 16.1306 23.7559 16.4916 23.3161 16.4916ZM23.3161 15.3963C23.1543 15.3963 23.0216 15.529 23.0216 15.6908C23.0216 15.8526 23.1543 15.9854 23.3161 15.9854C23.4779 15.9854 23.6107 15.8526 23.6107 15.6908C23.6107 15.529 23.4779 15.3963 23.3161 15.3963Z" fill="#A0A2A3"/>
<path d="M25.8592 13.7985H2.34827V12.2842H25.8592V13.7985ZM2.85027 13.3006H25.3572V12.7903H2.85027V13.3006Z" fill="#A0A2A3"/>
<path d="M17.4204 1.75502V0.249023H10.7368V1.75502L4.04483 4.21522H24.1123L17.4204 1.75502Z" fill="#E58824"/>
<path d="M25.5231 4.4682H2.63452L10.484 1.58067V0H17.6696V1.58067L25.5231 4.4682ZM5.45152 3.9662H22.7061L17.1717 1.92917V0.502001H10.9901V1.92917L5.45152 3.9662Z" fill="#A0A2A3"/>
<path d="M25.2907 4.21582H2.60126V5.37747H25.2907V4.21582Z" fill="#353B40"/>
<path d="M25.2867 5.6302H2.59719C2.46029 5.6302 2.34827 5.51818 2.34827 5.38127V4.21962C2.34827 4.08272 2.46029 3.9707 2.59719 3.9707H25.2867C25.4236 3.9707 25.5356 4.08272 25.5356 4.21962V5.38127C25.5398 5.51818 25.4277 5.6302 25.2867 5.6302ZM2.85027 5.1282H25.0377V4.46855H2.85027V5.1282Z" fill="#A0A2A3"/>
</svg>
