<svg width="35" height="32" viewBox="0 0 35 32" fill="none" xmlns="http://www.w3.org/2000/svg">
<path d="M29.5849 12.168H16.2798C15.1929 12.168 14.3133 13.0475 14.3133 14.1345V25.3942H31.5514V14.1345C31.5514 13.0475 30.6718 12.168 29.5849 12.168Z" fill="#E58824"/>
<path d="M31.8003 25.643H14.0644V14.1344C14.0644 12.9105 15.0601 11.9189 16.2798 11.9189H29.5849C30.8087 11.9189 31.8003 12.9146 31.8003 14.1344V25.643ZM14.5623 25.141H31.2983V14.1344C31.2983 13.1885 30.5308 12.4209 29.5849 12.4209H16.2798C15.3339 12.4209 14.5664 13.1885 14.5664 14.1344V25.141H14.5623Z" fill="#A0A2A3"/>
<path d="M34.2106 22.1709H11.6539V28.2364H34.2106V22.1709Z" fill="#353B40"/>
<path d="M34.4594 28.4893H11.4007V21.9219H34.4594V28.4893ZM11.9027 27.9873H33.9574V22.4239H11.9027V27.9873Z" fill="#A0A2A3"/>
<path d="M34.2106 25.2041H11.6539V31.2696H34.2106V25.2041Z" fill="#353B40"/>
<path d="M34.4594 31.5225H11.4007V24.9551H34.4594V31.5225ZM11.9027 31.0205H33.9574V25.4571H11.9027V31.0205Z" fill="#A0A2A3"/>
<path d="M34.2104 31.1363V21.3411C34.2104 20.3329 33.3931 19.5156 32.3849 19.5156H30.713C29.7048 19.5156 28.8875 20.3329 28.8875 21.3411V31.1363H34.2104Z" fill="#353B40"/>
<path d="M34.4594 31.3892H28.6388V21.341C28.6388 20.1959 29.5681 19.2666 30.7131 19.2666H32.3851C33.5301 19.2666 34.4594 20.1959 34.4594 21.341V31.3892ZM29.1408 30.8872H33.9574V21.341C33.9574 20.4739 33.2522 19.7686 32.3851 19.7686H30.7131C29.846 19.7686 29.1408 20.4739 29.1408 21.341V30.8872Z" fill="#A0A2A3"/>
<path d="M16.9726 31.1363V21.3411C16.9726 20.3329 16.1553 19.5156 15.1472 19.5156H13.4752C12.4671 19.5156 11.6498 20.3329 11.6498 21.3411V31.1363H16.9726Z" fill="#353B40"/>
<path d="M17.2256 31.3892H11.4049V21.341C11.4049 20.1959 12.3342 19.2666 13.4792 19.2666H15.1512C16.2962 19.2666 17.2256 20.1959 17.2256 21.341V31.3892ZM11.9027 30.8872H16.7194V21.341C16.7194 20.4739 16.0141 19.7686 15.147 19.7686H13.4751C12.608 19.7686 11.9027 20.4739 11.9027 21.341V30.8872Z" fill="#A0A2A3"/>
<path d="M9.39298 30.3477H0.63913V31.3226H9.39298V30.3477Z" fill="#353B40"/>
<path d="M9.64156 31.5675H0.385712V30.0947H9.64156V31.5675ZM0.887719 31.0697H9.13956V30.5967H0.887719V31.0697Z" fill="#A0A2A3"/>
<path d="M5.26468 7.5918H4.76269V30.3435H5.26468V7.5918Z" fill="#A0A2A3"/>
<path d="M7.56743 0.25293H4.97032H2.36905L0.319572 8.67903H4.97032H9.62106L7.56743 0.25293Z" fill="#353B40"/>
<path d="M9.94039 8.9281H0L2.17394 0H7.76645L9.94039 8.9281ZM0.63891 8.43025H9.30149L7.37231 0.506146H2.56807L0.63891 8.43025Z" fill="#A0A2A3"/>
<path d="M2.87111 8.67871H2.3691V14.6736H2.87111V8.67871Z" fill="#A0A2A3"/>
<path d="M2.62181 14.5244C2.62181 14.5244 1.93727 16.1881 2.62181 16.1881C3.30636 16.1881 2.62181 14.5244 2.62181 14.5244Z" fill="#353B40"/>
<path d="M2.62213 16.4369C2.43544 16.4369 2.27779 16.3581 2.18237 16.2129C1.87951 15.7606 2.26534 14.7318 2.38981 14.4289C2.42714 14.3335 2.51842 14.2754 2.62213 14.2754C2.72585 14.2754 2.81712 14.3376 2.85446 14.4289C2.97893 14.7318 3.36476 15.7648 3.0619 16.2129C2.96233 16.3581 2.80883 16.4369 2.62213 16.4369ZM2.60138 15.9349C2.60138 15.9349 2.60969 15.9349 2.62213 15.9349C2.63873 15.9349 2.64703 15.9307 2.64703 15.9307C2.69681 15.8768 2.68851 15.6528 2.62213 15.3541C2.55575 15.6528 2.54745 15.8768 2.60138 15.9349Z" fill="#A0A2A3"/>
</svg>
